<svg id="svg" version="1.1" width="400" height="400" viewBox="0 0 400 400" xmlns="http://www.w3.org/2000/svg" xmlns:xlink="http://www.w3.org/1999/xlink" ><g id="svgg"><path id="path0" d="M269.709 134.800 C 269.709 135.790,269.787 136.195,269.882 135.700 C 269.978 135.205,269.978 134.395,269.882 133.900 C 269.787 133.405,269.709 133.810,269.709 134.800 M119.701 152.600 C 119.705 153.480,119.787 153.793,119.883 153.295 C 119.979 152.798,119.975 152.078,119.875 151.695 C 119.775 151.313,119.696 151.720,119.701 152.600 M238.643 187.033 C 238.260 188.029,238.357 188.208,238.900 187.510 C 239.175 187.157,239.760 186.783,240.200 186.680 C 240.821 186.535,240.764 186.482,239.943 186.446 C 239.315 186.419,238.787 186.657,238.643 187.033 M69.701 213.000 C 69.705 213.880,69.787 214.193,69.883 213.695 C 69.979 213.198,69.975 212.478,69.875 212.095 C 69.775 211.713,69.696 212.120,69.701 213.000 " stroke="none" fill="#000000" fill-rule="evenodd"></path><path id="path1" d="M72.272 67.861 C 72.123 68.011,72.000 86.268,72.000 108.433 C 72.000 140.318,71.896 148.768,71.500 148.900 C 71.109 149.030,70.935 155.707,70.705 179.433 C 70.543 196.135,70.363 211.060,70.305 212.600 C 70.206 215.236,70.253 215.407,71.100 215.528 L 72.000 215.656 72.000 275.028 L 72.000 334.400 84.406 334.400 L 96.812 334.400 96.674 309.100 C 96.598 295.185,96.396 283.222,96.225 282.516 C 96.008 281.621,96.129 280.651,96.624 279.316 C 97.270 277.572,97.349 275.078,97.497 251.600 C 97.633 230.157,97.756 225.650,98.230 224.914 C 99.277 223.287,98.989 220.000,97.800 220.000 L 96.800 220.000 96.800 170.128 C 96.800 132.883,96.681 119.927,96.329 118.955 C 95.750 117.352,96.355 116.367,97.715 116.699 C 99.049 117.025,99.600 117.595,99.600 118.649 C 99.600 119.333,99.824 119.600,100.400 119.600 C 100.985 119.600,101.200 119.867,101.200 120.592 C 101.200 121.312,101.469 121.652,102.180 121.831 C 103.019 122.041,103.177 122.343,103.280 123.938 C 103.381 125.507,103.539 125.820,104.280 125.925 C 105.039 126.033,105.176 126.337,105.280 128.125 C 105.383 129.913,105.522 130.217,106.279 130.325 C 107.019 130.430,107.177 130.744,107.279 132.309 C 107.384 133.918,107.535 134.199,108.400 134.400 C 109.033 134.547,109.447 134.957,109.528 135.516 C 109.619 136.144,109.931 136.400,110.607 136.400 C 111.472 136.400,111.569 136.589,111.679 138.500 C 111.784 140.314,111.920 140.617,112.679 140.725 C 113.421 140.831,113.577 141.144,113.679 142.725 C 113.782 144.321,113.934 144.619,114.700 144.728 C 115.494 144.841,115.600 145.087,115.600 146.828 C 115.600 148.665,115.669 148.800,116.600 148.800 C 117.296 148.800,117.600 149.019,117.600 149.520 C 117.600 150.442,118.358 151.200,119.280 151.200 C 119.877 151.200,120.000 151.541,120.000 153.200 C 120.000 155.067,120.067 155.200,121.000 155.200 C 121.933 155.200,122.000 155.333,122.000 157.200 C 122.000 159.055,122.071 159.200,122.979 159.200 C 123.878 159.200,123.968 159.372,124.079 161.300 C 124.183 163.111,124.321 163.417,125.075 163.525 C 125.621 163.602,125.998 163.979,126.075 164.525 C 126.153 165.071,126.530 165.447,127.079 165.525 C 127.821 165.631,127.977 165.944,128.079 167.525 C 128.189 169.229,128.299 169.411,129.280 169.525 C 130.280 169.640,130.369 169.803,130.480 171.725 C 130.584 173.529,130.718 173.817,131.500 173.928 C 132.294 174.041,132.400 174.287,132.400 176.028 C 132.400 177.850,132.474 178.000,133.373 178.000 C 134.138 178.000,134.374 178.236,134.473 179.100 C 134.563 179.879,134.857 180.237,135.479 180.325 C 136.221 180.431,136.377 180.744,136.479 182.325 C 136.582 183.921,136.734 184.219,137.500 184.328 C 138.229 184.431,138.400 184.711,138.400 185.795 C 138.400 187.735,138.763 188.400,139.822 188.400 C 140.669 188.400,140.770 188.599,140.879 190.500 C 140.984 192.329,141.116 192.616,141.900 192.728 C 142.551 192.820,142.800 193.124,142.800 193.828 C 142.800 194.598,143.008 194.800,143.800 194.800 C 144.733 194.800,144.800 194.933,144.800 196.800 C 144.800 198.667,144.867 198.800,145.800 198.800 C 146.733 198.800,146.800 198.934,146.800 200.792 C 146.800 202.558,146.909 202.812,147.753 203.024 C 148.543 203.222,148.750 203.597,148.966 205.231 C 149.199 206.987,149.334 207.200,150.214 207.200 C 150.999 207.200,151.200 207.404,151.200 208.200 C 151.200 209.000,151.400 209.200,152.200 209.200 C 153.145 209.200,153.200 209.320,153.200 211.400 C 153.200 213.480,153.255 213.600,154.200 213.600 C 155.133 213.600,155.200 213.733,155.200 215.600 C 155.200 217.455,155.271 217.600,156.178 217.600 C 157.061 217.600,157.168 217.785,157.278 219.497 C 157.382 221.115,157.562 221.471,158.500 221.919 C 159.143 222.226,159.600 222.767,159.600 223.222 C 159.600 223.785,159.876 224.000,160.600 224.000 C 161.533 224.000,161.600 224.133,161.600 226.000 C 161.600 227.867,161.667 228.000,162.600 228.000 C 163.584 228.000,163.600 228.052,163.600 231.221 L 163.600 234.442 164.812 234.864 C 165.576 235.131,166.295 235.823,166.760 236.743 C 167.501 238.210,171.434 245.148,173.092 247.913 C 173.582 248.731,174.298 250.030,174.682 250.800 C 175.067 251.570,175.881 252.791,176.491 253.514 C 177.158 254.305,177.600 255.300,177.600 256.014 C 177.600 257.099,177.717 257.200,178.979 257.200 L 180.358 257.200 180.479 259.300 C 180.584 261.129,180.716 261.416,181.500 261.528 C 182.260 261.636,182.400 261.902,182.400 263.236 C 182.400 264.534,182.579 264.899,183.400 265.273 C 184.052 265.570,184.400 266.054,184.400 266.664 C 184.400 267.396,184.618 267.600,185.400 267.600 C 186.297 267.600,186.400 267.762,186.400 269.167 C 186.400 271.251,186.729 272.000,187.643 272.000 C 188.238 272.000,188.400 272.292,188.400 273.367 C 188.400 275.344,188.759 276.000,189.843 276.000 C 190.711 276.000,190.800 276.168,190.800 277.809 C 190.800 279.350,190.948 279.685,191.800 280.073 C 192.350 280.323,192.800 280.856,192.800 281.257 C 192.800 281.696,193.189 282.082,193.780 282.231 C 194.619 282.441,194.777 282.743,194.880 284.338 L 195.000 286.200 202.100 286.309 L 209.200 286.418 209.200 285.436 C 209.200 284.661,209.433 284.426,210.300 284.327 C 211.305 284.211,211.410 284.038,211.521 282.325 C 211.623 280.744,211.779 280.431,212.521 280.325 C 213.137 280.237,213.437 279.879,213.524 279.125 C 213.611 278.372,213.911 278.012,214.524 277.925 C 215.433 277.795,215.467 277.711,215.550 275.400 C 215.593 274.187,215.733 274.000,216.600 274.000 C 217.545 274.000,217.600 273.880,217.600 271.800 C 217.600 269.720,217.655 269.600,218.600 269.600 C 219.533 269.600,219.600 269.467,219.600 267.600 C 219.600 265.755,219.674 265.600,220.561 265.600 C 221.274 265.600,221.632 265.283,221.951 264.370 C 222.186 263.693,222.544 263.242,222.744 263.366 C 222.945 263.490,223.294 263.368,223.521 263.096 C 223.992 262.528,224.000 262.485,224.000 260.600 C 224.000 259.267,224.067 259.200,225.400 259.200 C 226.674 259.200,226.800 259.097,226.800 258.056 C 226.800 257.427,227.276 256.212,227.857 255.356 C 228.438 254.500,229.628 252.403,230.500 250.697 C 231.373 248.990,232.250 247.493,232.450 247.369 C 232.649 247.246,233.086 246.489,233.422 245.687 C 233.757 244.884,234.171 244.132,234.341 244.014 C 234.512 243.896,235.514 242.207,236.568 240.261 C 238.379 236.917,238.548 236.731,239.642 236.892 L 240.800 237.061 240.800 233.759 C 240.800 230.638,240.850 230.449,241.700 230.328 C 242.484 230.216,242.616 229.929,242.721 228.100 C 242.832 226.172,242.922 226.000,243.821 226.000 C 244.727 226.000,244.800 225.854,244.800 224.028 C 244.800 222.287,244.906 222.041,245.700 221.928 C 246.344 221.836,246.636 221.488,246.727 220.700 C 246.826 219.836,247.062 219.600,247.827 219.600 C 248.726 219.600,248.800 219.451,248.800 217.627 C 248.800 215.771,248.866 215.646,249.900 215.527 C 250.905 215.411,251.010 215.238,251.121 213.525 C 251.223 211.944,251.379 211.631,252.121 211.525 C 252.880 211.417,253.016 211.114,253.121 209.300 C 253.232 207.372,253.322 207.200,254.221 207.200 C 254.999 207.200,255.200 206.994,255.200 206.200 C 255.200 205.400,255.400 205.200,256.200 205.200 C 257.131 205.200,257.200 205.065,257.200 203.228 C 257.200 201.487,257.306 201.241,258.100 201.128 C 258.882 201.017,259.016 200.729,259.120 198.925 C 259.231 197.003,259.320 196.840,260.320 196.725 C 261.300 196.612,261.411 196.428,261.520 194.738 C 261.623 193.143,261.781 192.841,262.620 192.631 C 263.232 192.477,263.600 192.098,263.600 191.620 C 263.600 191.132,263.925 190.809,264.500 190.728 C 265.284 190.616,265.416 190.329,265.521 188.500 C 265.632 186.572,265.722 186.400,266.621 186.400 C 267.529 186.400,267.600 186.255,267.600 184.400 C 267.600 182.533,267.667 182.400,268.600 182.400 C 269.544 182.400,269.600 182.278,269.600 180.227 C 269.600 178.153,269.650 178.047,270.700 177.927 C 271.488 177.836,271.836 177.544,271.928 176.900 C 272.020 176.249,272.324 176.000,273.028 176.000 C 273.925 176.000,274.000 175.849,274.000 174.043 C 274.000 172.290,274.104 172.061,275.000 171.836 C 275.899 171.610,276.000 171.384,276.000 169.592 C 276.000 167.734,276.067 167.600,277.000 167.600 C 277.932 167.600,278.000 167.465,278.000 165.627 C 278.000 163.771,278.066 163.646,279.100 163.527 C 279.877 163.437,280.237 163.143,280.325 162.525 C 280.402 161.979,280.779 161.602,281.325 161.525 C 282.079 161.417,282.217 161.111,282.321 159.300 C 282.432 157.372,282.522 157.200,283.421 157.200 C 284.329 157.200,284.400 157.055,284.400 155.200 C 284.400 153.333,284.467 153.200,285.400 153.200 C 286.345 153.200,286.400 153.080,286.400 151.000 C 286.400 148.920,286.455 148.800,287.400 148.800 C 288.193 148.800,288.400 148.598,288.400 147.827 C 288.400 147.062,288.636 146.826,289.500 146.727 C 290.505 146.611,290.610 146.438,290.721 144.725 C 290.823 143.144,290.979 142.831,291.721 142.725 C 292.480 142.617,292.616 142.314,292.721 140.500 C 292.832 138.572,292.922 138.400,293.821 138.400 C 294.729 138.400,294.800 138.255,294.800 136.400 C 294.800 134.533,294.867 134.400,295.800 134.400 C 296.600 134.400,296.800 134.200,296.800 133.400 C 296.800 132.600,297.000 132.400,297.800 132.400 C 298.744 132.400,298.800 132.278,298.800 130.227 C 298.800 128.153,298.850 128.047,299.900 127.927 C 300.907 127.811,301.010 127.640,301.122 125.900 C 301.222 124.333,301.379 124.000,302.014 124.000 C 302.503 124.000,302.877 123.634,303.036 123.000 C 303.233 122.214,303.555 121.990,304.543 121.954 C 305.235 121.928,305.504 121.829,305.143 121.732 C 304.190 121.479,303.936 119.710,304.819 119.479 C 305.204 119.379,305.638 118.737,305.790 118.045 C 306.142 116.445,307.299 115.756,308.172 116.629 C 309.016 117.473,308.963 118.712,308.000 120.600 C 307.063 122.439,306.707 212.332,307.631 214.057 C 307.925 214.608,308.047 222.083,308.015 237.731 C 307.987 251.629,308.161 263.800,308.459 268.756 L 308.948 276.913 308.071 277.623 L 307.195 278.333 307.297 306.266 L 307.400 334.200 320.900 334.305 L 334.400 334.411 334.382 243.105 C 334.372 186.795,334.217 150.650,333.978 148.800 C 333.117 142.120,333.035 138.046,333.744 137.262 C 334.349 136.593,334.396 133.643,334.302 102.166 L 334.200 67.800 320.800 67.800 L 307.400 67.800 307.280 69.875 C 307.176 71.663,307.039 71.967,306.280 72.075 C 305.730 72.153,305.353 72.528,305.275 73.075 C 305.198 73.621,304.821 73.998,304.275 74.075 C 303.538 74.180,303.381 74.496,303.279 76.075 C 303.177 77.656,303.021 77.969,302.279 78.075 C 301.520 78.183,301.384 78.486,301.279 80.300 C 301.170 82.201,301.069 82.400,300.222 82.400 C 299.165 82.400,298.800 83.065,298.800 84.989 C 298.800 86.068,298.615 86.360,297.800 86.564 C 297.179 86.720,296.800 87.099,296.800 87.564 C 296.800 88.030,296.421 88.408,295.800 88.564 C 294.901 88.790,294.800 89.016,294.800 90.808 C 294.800 92.666,294.733 92.800,293.800 92.800 C 292.867 92.800,292.800 92.933,292.800 94.800 C 292.800 96.667,292.733 96.800,291.800 96.800 C 290.856 96.800,290.800 96.922,290.800 98.973 C 290.800 101.047,290.750 101.153,289.700 101.273 C 288.923 101.363,288.563 101.657,288.475 102.275 C 288.398 102.821,288.021 103.198,287.475 103.275 C 286.738 103.380,286.581 103.696,286.479 105.275 C 286.377 106.856,286.221 107.169,285.479 107.275 C 284.720 107.383,284.584 107.686,284.479 109.500 C 284.368 111.428,284.278 111.600,283.379 111.600 C 282.473 111.600,282.400 111.746,282.400 113.572 C 282.400 115.313,282.294 115.559,281.500 115.672 C 280.922 115.754,280.554 116.122,280.472 116.700 C 280.396 117.237,280.065 117.600,279.652 117.600 C 278.529 117.600,278.000 118.449,278.000 120.252 C 278.000 121.702,277.871 121.963,277.100 122.072 C 276.334 122.181,276.182 122.479,276.079 124.075 C 275.977 125.656,275.821 125.969,275.079 126.075 C 274.320 126.183,274.184 126.486,274.079 128.300 C 273.968 130.228,273.878 130.400,272.979 130.400 C 272.201 130.400,272.000 130.606,272.000 131.400 C 272.000 132.200,271.800 132.400,271.000 132.400 C 270.068 132.400,270.000 132.535,270.000 134.373 C 270.000 136.229,269.934 136.354,268.900 136.473 C 267.876 136.591,267.792 136.743,267.680 138.675 C 267.576 140.463,267.439 140.767,266.680 140.875 C 265.935 140.981,265.781 141.292,265.678 142.900 C 265.568 144.615,265.461 144.800,264.578 144.800 C 263.809 144.800,263.600 145.008,263.600 145.772 C 263.600 146.476,263.351 146.780,262.700 146.872 C 261.916 146.984,261.784 147.271,261.679 149.100 C 261.569 151.020,261.475 151.200,260.593 151.200 C 259.738 151.200,259.598 151.426,259.365 153.179 C 259.151 154.791,258.945 155.180,258.251 155.279 C 257.545 155.379,257.366 155.742,257.200 157.400 C 257.030 159.096,256.863 159.419,256.100 159.528 C 255.449 159.620,255.200 159.924,255.200 160.628 C 255.200 161.398,254.992 161.600,254.200 161.600 C 253.269 161.600,253.200 161.735,253.200 163.572 C 253.200 165.313,253.094 165.559,252.300 165.672 C 251.516 165.784,251.384 166.071,251.279 167.900 C 251.168 169.824,251.077 170.000,250.187 170.000 C 249.484 170.000,249.146 170.277,248.964 171.000 C 248.826 171.550,248.469 172.000,248.171 172.000 C 247.440 172.000,246.800 173.281,246.800 174.746 C 246.800 175.684,246.605 175.972,245.900 176.072 C 245.116 176.184,244.984 176.471,244.879 178.300 C 244.768 180.228,244.678 180.400,243.779 180.400 C 242.871 180.400,242.800 180.545,242.800 182.400 C 242.800 184.267,242.733 184.400,241.800 184.400 C 240.961 184.400,240.800 184.589,240.800 185.572 C 240.800 186.483,240.600 186.773,239.900 186.872 C 239.177 186.975,238.929 187.370,238.637 188.880 C 238.355 190.339,238.085 190.788,237.437 190.880 C 236.743 190.980,236.579 191.325,236.478 192.900 C 236.368 194.615,236.261 194.800,235.378 194.800 C 234.474 194.800,234.400 194.948,234.400 196.757 C 234.400 198.510,234.296 198.739,233.400 198.964 C 232.679 199.145,232.400 199.485,232.400 200.180 C 232.400 200.876,232.149 201.180,231.500 201.272 C 230.732 201.381,230.582 201.679,230.478 203.300 C 230.358 205.175,230.338 205.200,228.978 205.200 C 227.704 205.200,227.600 205.294,227.600 206.438 C 227.600 207.119,227.195 208.235,226.700 208.917 C 225.780 210.185,224.703 212.090,223.215 215.083 C 222.754 216.009,222.207 216.872,222.000 217.000 C 221.793 217.128,221.250 217.991,220.795 218.917 C 220.340 219.842,219.446 221.500,218.808 222.600 C 218.170 223.700,217.241 225.365,216.744 226.300 C 216.011 227.680,215.630 228.000,214.720 228.000 L 213.600 228.000 213.600 231.200 C 213.600 234.347,213.583 234.400,212.600 234.400 C 211.669 234.400,211.600 234.535,211.600 236.372 C 211.600 238.113,211.494 238.359,210.700 238.472 C 209.957 238.578,209.735 238.964,209.430 240.681 C 209.136 242.336,208.890 242.787,208.230 242.881 C 207.729 242.953,207.351 243.347,207.275 243.875 C 207.198 244.421,206.821 244.798,206.275 244.875 C 205.536 244.981,205.381 245.296,205.278 246.900 L 205.156 248.800 201.978 248.800 L 198.800 248.800 198.800 246.800 C 198.800 244.933,198.733 244.800,197.800 244.800 C 196.867 244.800,196.800 244.667,196.800 242.800 C 196.800 240.945,196.729 240.800,195.821 240.800 C 194.922 240.800,194.832 240.628,194.721 238.700 C 194.617 236.900,194.477 236.582,193.738 236.477 C 193.213 236.402,192.779 235.972,192.630 235.377 C 192.476 234.764,192.098 234.400,191.614 234.400 C 190.979 234.400,190.822 234.067,190.722 232.500 C 190.610 230.760,190.507 230.589,189.500 230.473 C 188.448 230.352,188.400 230.250,188.400 228.141 C 188.400 226.289,188.176 225.598,187.000 223.826 C 186.230 222.666,185.600 221.525,185.600 221.289 C 185.600 221.054,185.191 220.353,184.691 219.731 C 184.191 219.109,183.461 217.970,183.068 217.200 C 182.674 216.430,181.833 214.900,181.197 213.800 C 180.561 212.700,179.679 211.035,179.235 210.100 C 178.791 209.165,178.260 208.400,178.053 208.400 C 177.847 208.400,177.476 207.820,177.229 207.111 C 176.982 206.403,176.346 205.368,175.815 204.811 C 175.284 204.255,174.780 203.260,174.694 202.600 C 174.562 201.590,174.339 201.380,173.289 201.276 C 172.085 201.157,172.036 201.078,171.920 199.076 C 171.808 197.143,171.724 196.991,170.700 196.873 C 169.666 196.754,169.600 196.629,169.600 194.773 C 169.600 192.935,169.532 192.800,168.600 192.800 C 167.800 192.800,167.600 192.600,167.600 191.800 C 167.600 191.006,167.399 190.800,166.621 190.800 C 165.722 190.800,165.632 190.628,165.521 188.700 C 165.416 186.871,165.284 186.584,164.500 186.472 C 163.706 186.359,163.600 186.113,163.600 184.372 C 163.600 182.535,163.531 182.400,162.600 182.400 C 161.666 182.400,161.600 182.267,161.600 180.390 C 161.600 178.485,161.539 178.368,160.421 178.144 C 159.370 177.934,159.228 177.728,159.121 176.254 C 159.028 174.988,158.789 174.507,158.100 174.205 C 157.548 173.963,157.200 173.460,157.200 172.905 C 157.200 172.211,156.971 172.000,156.221 172.000 C 155.322 172.000,155.232 171.828,155.121 169.900 C 155.016 168.086,154.880 167.783,154.121 167.675 C 153.379 167.569,153.223 167.256,153.121 165.675 C 153.018 164.079,152.866 163.781,152.100 163.672 C 151.500 163.587,151.185 163.254,151.154 162.672 C 151.128 162.192,151.066 161.620,151.015 161.400 C 150.964 161.180,150.894 160.685,150.861 160.300 C 150.821 159.842,150.464 159.600,149.827 159.600 C 149.062 159.600,148.826 159.364,148.727 158.500 C 148.636 157.712,148.344 157.364,147.700 157.272 C 146.906 157.159,146.800 156.913,146.800 155.172 C 146.800 153.335,146.731 153.200,145.800 153.200 C 144.870 153.200,144.800 153.064,144.800 151.243 C 144.800 149.502,144.693 149.260,143.822 149.041 C 142.981 148.830,142.827 148.530,142.722 146.898 C 142.619 145.296,142.464 144.981,141.725 144.875 C 141.179 144.798,140.802 144.421,140.725 143.875 C 140.637 143.257,140.277 142.963,139.500 142.873 C 138.466 142.755,138.400 142.628,138.400 140.781 C 138.400 139.018,138.297 138.789,137.400 138.564 C 136.504 138.339,136.400 138.110,136.400 136.357 C 136.400 134.548,136.326 134.400,135.422 134.400 C 134.539 134.400,134.432 134.215,134.322 132.500 C 134.218 130.879,134.068 130.581,133.300 130.472 C 132.651 130.380,132.400 130.076,132.400 129.380 C 132.400 128.690,132.121 128.345,131.420 128.169 C 130.581 127.959,130.423 127.657,130.320 126.062 C 130.211 124.363,130.104 124.189,129.100 124.073 C 128.066 123.954,128.000 123.829,128.000 121.973 C 128.000 120.146,127.927 120.000,127.021 120.000 C 126.122 120.000,126.032 119.828,125.921 117.900 C 125.817 116.089,125.679 115.783,124.925 115.675 C 124.379 115.598,124.002 115.221,123.925 114.675 C 123.846 114.121,123.470 113.753,122.900 113.672 C 122.108 113.560,122.000 113.312,122.000 111.599 C 122.000 109.774,121.932 109.645,120.900 109.527 C 119.874 109.409,119.792 109.259,119.679 107.300 C 119.568 105.372,119.478 105.200,118.579 105.200 C 117.671 105.200,117.600 105.055,117.600 103.200 C 117.600 101.333,117.533 101.200,116.600 101.200 C 115.812 101.200,115.600 100.997,115.600 100.243 C 115.600 99.562,115.318 99.216,114.622 99.041 C 113.781 98.830,113.627 98.530,113.522 96.898 C 113.418 95.279,113.268 94.981,112.500 94.872 C 111.771 94.769,111.600 94.489,111.600 93.405 C 111.600 91.456,111.237 90.800,110.157 90.800 C 109.264 90.800,109.200 90.654,109.200 88.600 C 109.200 86.520,109.145 86.400,108.200 86.400 C 107.400 86.400,107.200 86.200,107.200 85.400 C 107.200 84.600,107.000 84.400,106.200 84.400 C 105.267 84.400,105.200 84.267,105.200 82.400 C 105.200 80.533,105.133 80.400,104.200 80.400 C 103.303 80.400,103.200 80.238,103.200 78.833 C 103.200 76.762,102.872 76.000,101.979 76.000 C 101.386 76.000,101.220 75.633,101.122 74.100 C 101.010 72.360,100.907 72.189,99.900 72.073 C 99.036 71.974,98.800 71.738,98.800 70.973 C 98.800 70.209,98.591 70.000,97.827 70.000 C 97.062 70.000,96.826 69.764,96.727 68.900 L 96.600 67.800 84.572 67.694 C 77.957 67.636,72.422 67.711,72.272 67.861 " stroke="none" fill="#575757" fill-rule="evenodd"></path><path id="path2" d="M148.752 91.687 C 148.937 92.798,148.993 92.855,149.119 92.054 C 149.201 91.533,149.103 90.943,148.901 90.741 C 148.679 90.519,148.621 90.893,148.752 91.687 M348.893 110.400 C 348.893 111.170,348.975 111.485,349.076 111.100 C 349.176 110.715,349.176 110.085,349.076 109.700 C 348.975 109.315,348.893 109.630,348.893 110.400 M53.502 111.866 C 53.779 111.977,53.905 112.231,53.782 112.430 C 53.659 112.628,53.837 112.684,54.177 112.554 C 54.950 112.257,54.587 111.589,53.676 111.632 C 53.256 111.651,53.190 111.740,53.502 111.866 M306.731 116.415 C 306.363 116.629,305.939 117.366,305.789 118.051 C 305.638 118.738,305.203 119.379,304.819 119.479 C 304.116 119.663,304.111 121.600,304.814 121.600 C 304.990 121.600,305.464 121.716,305.867 121.859 C 306.467 122.071,306.509 122.020,306.100 121.579 C 305.523 120.957,305.427 119.600,305.961 119.600 C 306.159 119.600,306.515 119.046,306.751 118.370 C 307.394 116.523,308.124 117.305,307.850 119.547 C 307.625 121.390,307.627 121.394,308.194 120.200 C 309.041 118.417,308.593 115.821,307.471 116.012 C 307.432 116.019,307.099 116.200,306.731 116.415 M96.370 117.036 C 96.117 117.341,96.024 118.042,96.163 118.595 C 96.534 120.072,99.600 120.120,99.600 118.649 C 99.600 117.105,97.276 115.944,96.370 117.036 M371.600 120.904 C 371.600 121.255,371.285 121.624,370.900 121.724 C 370.244 121.896,370.245 121.910,370.913 121.954 C 371.636 122.001,372.306 120.973,371.849 120.516 C 371.712 120.379,371.600 120.553,371.600 120.904 M333.591 137.410 C 333.051 138.062,333.214 142.869,333.978 148.800 C 334.192 150.455,334.373 163.788,334.382 178.543 C 334.398 202.760,334.460 205.263,335.033 205.043 C 335.381 204.909,335.786 204.800,335.933 204.800 C 336.194 204.800,336.137 161.100,335.861 150.400 C 335.744 145.819,335.585 144.703,334.817 143.041 C 334.119 141.532,333.951 140.591,334.088 138.941 C 334.287 136.547,334.293 136.565,333.591 137.410 M70.078 179.700 C 70.059 197.950,70.189 210.109,70.396 209.400 C 70.945 207.517,71.099 148.800,70.555 148.800 C 70.232 148.800,70.101 157.302,70.078 179.700 M177.204 199.157 C 176.629 199.317,176.393 199.548,176.645 199.704 C 176.885 199.853,177.424 199.716,177.841 199.400 C 178.677 198.767,178.646 198.755,177.204 199.157 M174.668 202.500 C 174.777 203.215,175.297 204.255,175.823 204.811 C 176.349 205.368,176.982 206.403,177.229 207.111 C 177.476 207.820,177.847 208.400,178.053 208.400 C 178.260 208.400,178.791 209.165,179.235 210.100 C 179.679 211.035,180.561 212.700,181.197 213.800 C 181.833 214.900,182.674 216.430,183.068 217.200 C 183.461 217.970,184.191 219.109,184.691 219.731 C 185.191 220.353,185.600 221.047,185.600 221.275 C 185.600 222.159,188.198 225.717,188.335 225.021 C 188.512 224.128,187.669 222.112,187.014 221.861 C 186.732 221.752,186.381 221.022,186.233 220.237 C 186.085 219.445,185.625 218.627,185.200 218.400 C 184.779 218.175,184.316 217.359,184.171 216.588 C 184.027 215.817,183.479 214.848,182.954 214.435 C 182.429 214.023,182.000 213.320,182.000 212.873 C 182.000 212.427,181.550 211.527,181.000 210.873 C 180.450 210.219,180.000 209.427,180.000 209.112 C 180.000 208.797,179.559 208.125,179.021 207.619 C 178.482 207.114,177.925 206.171,177.784 205.526 C 177.623 204.795,177.163 204.214,176.563 203.986 C 175.839 203.711,175.600 203.320,175.600 202.410 C 175.600 201.634,175.397 201.200,175.035 201.200 C 174.623 201.200,174.524 201.553,174.668 202.500 M226.400 206.382 C 226.400 207.109,226.015 207.948,225.400 208.564 C 224.850 209.114,224.400 210.015,224.400 210.568 C 224.400 211.156,224.075 211.746,223.614 211.992 C 223.182 212.224,222.610 213.141,222.344 214.030 C 222.077 214.920,221.546 215.815,221.162 216.020 C 220.779 216.225,220.350 216.916,220.210 217.555 C 220.069 218.194,219.615 219.024,219.200 219.400 C 218.785 219.776,218.331 220.603,218.191 221.239 C 218.052 221.875,217.671 222.544,217.346 222.726 C 217.021 222.908,216.513 223.764,216.217 224.629 C 215.801 225.847,215.447 226.228,214.640 226.327 C 213.113 226.512,213.185 228.000,214.720 228.000 C 215.630 228.000,216.011 227.680,216.744 226.300 C 217.241 225.365,218.170 223.700,218.808 222.600 C 219.446 221.500,220.340 219.842,220.795 218.917 C 221.250 217.991,221.793 217.128,222.000 217.000 C 222.207 216.872,222.754 216.009,223.215 215.083 C 224.703 212.090,225.780 210.185,226.700 208.917 C 227.743 207.479,227.927 205.200,227.000 205.200 C 226.602 205.200,226.400 205.598,226.400 206.382 M305.480 213.900 C 305.049 214.674,305.263 217.755,305.802 218.524 C 306.317 219.259,306.400 222.746,306.402 243.589 C 306.404 263.465,306.504 267.991,306.960 268.865 C 307.914 270.693,308.540 275.424,308.023 276.905 C 307.597 278.127,307.610 278.161,308.257 277.514 C 308.892 276.879,308.907 276.230,308.456 268.714 C 308.162 263.820,307.987 251.553,308.013 237.800 C 308.037 225.260,307.935 214.685,307.785 214.300 C 307.518 213.610,305.807 213.313,305.480 213.900 M192.000 220.557 C 192.000 220.937,191.820 221.136,191.600 221.000 C 191.380 220.864,191.200 220.943,191.200 221.176 C 191.200 221.409,191.386 221.600,191.613 221.600 C 192.112 221.600,192.599 220.465,192.249 220.116 C 192.112 219.979,192.000 220.177,192.000 220.557 M98.100 225.074 C 97.717 225.743,97.595 231.180,97.578 248.274 C 97.555 270.548,97.303 277.093,96.346 280.291 C 95.815 282.064,96.159 283.988,97.060 284.287 C 97.568 284.456,97.701 283.461,98.385 274.400 C 99.024 265.953,98.780 223.885,98.100 225.074 M298.924 232.200 C 298.926 233.520,299.001 234.012,299.090 233.293 C 299.179 232.574,299.177 231.494,299.086 230.893 C 298.995 230.292,298.922 230.880,298.924 232.200 M163.966 235.120 C 164.172 235.494,164.713 236.113,165.170 236.496 C 165.626 236.879,166.000 237.562,166.000 238.014 C 166.000 238.466,166.427 239.263,166.948 239.785 C 167.470 240.306,168.014 241.202,168.158 241.777 C 168.302 242.351,168.758 243.158,169.171 243.571 C 169.583 243.983,170.053 244.744,170.215 245.261 C 170.377 245.777,170.935 246.709,171.455 247.331 C 171.975 247.953,172.400 248.775,172.400 249.159 C 172.400 249.542,172.850 250.247,173.400 250.725 C 173.950 251.203,174.400 251.964,174.400 252.416 C 174.400 252.867,174.850 253.686,175.400 254.236 C 175.950 254.786,176.400 255.678,176.400 256.218 C 176.400 256.824,176.630 257.200,177.000 257.200 C 178.027 257.200,177.719 254.969,176.491 253.514 C 175.881 252.791,175.067 251.570,174.682 250.800 C 174.298 250.030,173.582 248.731,173.092 247.913 C 171.434 245.148,167.501 238.210,166.760 236.743 C 166.294 235.822,165.577 235.131,164.808 234.863 C 163.720 234.483,163.632 234.510,163.966 235.120 M236.560 240.277 C 235.510 242.215,234.512 243.896,234.341 244.014 C 234.171 244.132,233.757 244.884,233.422 245.687 C 233.086 246.489,232.649 247.246,232.450 247.369 C 232.250 247.493,231.373 248.990,230.500 250.697 C 229.628 252.403,228.438 254.500,227.857 255.356 C 226.815 256.889,226.420 259.200,227.200 259.200 C 227.420 259.200,227.600 258.760,227.600 258.223 C 227.600 257.685,227.931 257.010,228.337 256.723 C 229.193 256.115,230.000 254.718,230.000 253.844 C 230.000 253.510,230.450 252.786,231.000 252.236 C 231.550 251.686,232.000 250.867,232.000 250.416 C 232.000 249.964,232.450 249.203,233.000 248.725 C 233.550 248.247,234.000 247.642,234.000 247.382 C 234.000 247.121,234.366 246.442,234.814 245.873 C 235.262 245.303,235.833 244.244,236.083 243.519 C 236.333 242.793,236.859 241.970,237.253 241.689 C 237.646 241.407,238.085 240.552,238.229 239.789 C 238.456 238.575,238.638 238.400,239.674 238.400 C 241.232 238.400,241.106 237.059,239.530 236.877 C 238.567 236.765,238.289 237.083,236.560 240.277 M148.920 267.600 C 148.920 268.810,148.995 269.305,149.087 268.700 C 149.178 268.095,149.178 267.105,149.087 266.500 C 148.995 265.895,148.920 266.390,148.920 267.600 M291.371 308.591 C 290.694 309.103,290.683 309.176,291.276 309.187 C 291.648 309.194,292.071 309.008,292.216 308.773 C 292.652 308.068,292.193 307.970,291.371 308.591 M248.893 310.400 C 248.893 311.170,248.975 311.485,249.076 311.100 C 249.176 310.715,249.176 310.085,249.076 309.700 C 248.975 309.315,248.893 309.630,248.893 310.400 " stroke="none" fill="#8e8e8e" fill-rule="evenodd"></path><path id="path3" d="M7.359 64.162 C 6.864 65.454,7.381 67.397,8.255 67.522 C 9.007 67.629,9.151 68.013,9.455 70.722 C 9.675 72.683,9.981 73.818,10.300 73.850 C 10.575 73.877,10.980 73.922,11.200 73.950 C 11.420 73.978,11.600 74.900,11.600 76.000 C 11.600 77.855,11.671 78.000,12.579 78.000 C 13.478 78.000,13.568 78.172,13.679 80.100 C 13.784 81.917,13.919 82.217,14.683 82.326 C 15.487 82.440,15.576 82.708,15.683 85.326 C 15.790 87.960,15.875 88.211,16.700 88.328 C 17.448 88.434,17.608 88.720,17.650 90.028 C 17.678 90.893,17.723 91.825,17.750 92.100 C 17.777 92.375,18.295 92.657,18.900 92.727 C 19.934 92.846,20.000 92.971,20.000 94.827 C 20.000 96.656,20.072 96.800,20.983 96.800 C 21.933 96.800,21.970 96.906,22.083 99.900 C 22.191 102.769,22.267 103.010,23.100 103.128 C 23.894 103.241,24.000 103.487,24.000 105.228 C 24.000 107.065,24.069 107.200,25.000 107.200 C 25.933 107.200,26.000 107.334,26.000 109.192 C 26.000 110.984,26.101 111.210,27.000 111.436 C 27.917 111.666,28.004 111.882,28.050 114.043 C 28.122 117.448,28.101 117.389,29.280 117.525 C 30.280 117.640,30.369 117.803,30.480 119.725 C 30.584 121.529,30.718 121.817,31.500 121.928 C 32.282 122.039,32.404 122.302,32.431 123.928 C 32.481 126.995,33.068 128.376,34.060 127.763 C 34.223 127.662,34.412 128.529,34.479 129.690 C 34.578 131.417,34.760 131.870,35.482 132.187 C 36.173 132.490,36.389 132.966,36.482 134.387 C 36.582 135.919,36.739 136.220,37.500 136.328 C 38.269 136.437,38.407 136.713,38.450 138.228 C 38.478 139.203,38.545 140.180,38.600 140.400 C 38.655 140.620,38.723 141.140,38.750 141.557 C 38.780 142.008,39.204 142.415,39.800 142.564 C 40.699 142.790,40.800 143.016,40.800 144.808 C 40.800 146.666,40.867 146.800,41.800 146.800 C 42.733 146.800,42.800 146.934,42.800 148.792 C 42.800 150.575,42.904 150.811,43.783 151.032 C 44.698 151.261,44.775 151.478,44.883 154.139 C 44.990 156.760,45.076 157.011,45.900 157.128 C 46.695 157.241,46.800 157.487,46.800 159.238 C 46.800 161.129,46.856 161.231,48.025 161.465 C 49.102 161.680,49.240 161.860,49.167 162.955 C 49.014 165.249,49.149 165.600,50.183 165.600 C 51.133 165.600,51.170 165.706,51.283 168.700 C 51.391 171.569,51.467 171.810,52.300 171.928 C 53.094 172.041,53.200 172.287,53.200 174.028 C 53.200 175.865,53.269 176.000,54.200 176.000 C 55.097 176.000,55.200 176.162,55.200 177.567 C 55.200 179.651,55.529 180.400,56.443 180.400 C 57.096 180.400,57.207 180.729,57.250 182.800 C 57.321 186.211,57.315 186.188,58.230 186.319 C 58.890 186.413,59.136 186.864,59.430 188.519 C 59.735 190.236,59.957 190.622,60.700 190.728 C 61.509 190.843,61.600 191.079,61.600 193.054 C 61.600 195.461,62.105 196.800,63.014 196.800 C 63.450 196.800,63.600 197.309,63.600 198.792 C 63.600 200.573,63.704 200.811,64.580 201.031 C 65.419 201.241,65.577 201.543,65.680 203.138 C 65.782 204.720,65.935 205.019,66.700 205.128 C 67.522 205.245,67.601 205.471,67.606 207.728 C 67.613 210.371,67.806 210.913,68.887 211.312 C 69.972 211.712,69.944 212.489,70.021 179.980 L 70.095 149.000 68.848 149.059 L 67.600 149.118 67.600 145.959 C 67.600 142.856,67.582 142.800,66.600 142.800 C 65.667 142.800,65.600 142.667,65.600 140.800 C 65.600 139.700,65.420 138.778,65.200 138.750 C 64.980 138.722,64.575 138.678,64.300 138.650 C 63.963 138.616,63.762 137.657,63.683 135.703 C 63.573 133.004,63.498 132.790,62.583 132.560 C 61.709 132.341,61.600 132.099,61.600 130.388 C 61.600 128.575,61.531 128.448,60.400 128.200 C 59.239 127.945,59.198 127.859,59.150 125.568 C 59.081 122.296,59.064 122.206,58.500 122.150 C 58.225 122.123,57.820 122.078,57.600 122.050 C 57.380 122.022,57.200 121.103,57.200 120.008 C 57.200 118.216,57.099 117.990,56.200 117.764 C 55.336 117.547,55.199 117.288,55.195 115.857 C 55.187 113.485,54.805 112.312,54.127 112.573 C 53.812 112.693,53.668 112.614,53.803 112.395 C 53.937 112.178,53.857 112.000,53.624 112.000 C 53.389 112.000,53.200 111.210,53.200 110.233 C 53.200 107.950,52.892 107.200,51.957 107.200 C 51.362 107.200,51.200 106.908,51.200 105.833 C 51.200 103.863,50.841 103.200,49.774 103.200 C 48.878 103.200,48.828 103.054,48.717 100.100 C 48.637 97.983,48.441 96.984,48.100 96.950 C 47.825 96.923,47.420 96.877,47.200 96.850 C 46.980 96.823,46.800 95.900,46.800 94.800 C 46.800 92.933,46.733 92.800,45.800 92.800 C 44.822 92.800,44.800 92.735,44.800 89.776 C 44.800 87.863,44.653 86.844,44.400 87.000 C 44.180 87.136,44.000 87.062,44.000 86.836 C 44.000 86.610,43.740 86.525,43.422 86.647 C 42.971 86.820,42.817 86.400,42.722 84.734 C 42.615 82.870,42.486 82.584,41.700 82.472 C 40.794 82.344,40.643 81.694,40.678 78.100 C 40.682 77.605,40.521 77.200,40.320 77.200 C 40.118 77.200,40.064 77.020,40.200 76.800 C 40.336 76.580,40.257 76.377,40.024 76.350 C 39.791 76.323,39.375 76.278,39.100 76.250 C 38.787 76.219,38.555 75.414,38.479 74.100 C 38.369 72.185,38.274 72.000,37.400 72.000 C 36.526 72.000,36.431 71.815,36.321 69.900 C 36.216 68.071,36.084 67.784,35.300 67.672 C 34.506 67.559,34.400 67.313,34.400 65.572 L 34.400 63.600 20.987 63.600 C 9.838 63.600,7.539 63.695,7.359 64.162 M367.867 63.867 C 367.720 64.013,367.600 64.451,367.600 64.839 C 367.600 65.266,367.245 65.595,366.700 65.672 C 365.868 65.790,365.791 66.032,365.684 68.874 C 365.577 71.699,365.496 71.959,364.684 72.074 C 363.935 72.181,363.781 72.490,363.678 74.100 C 363.568 75.815,363.461 76.000,362.578 76.000 C 361.622 76.000,361.600 76.072,361.600 79.200 C 361.600 82.335,361.580 82.400,360.614 82.400 C 359.734 82.400,359.599 82.613,359.365 84.379 C 359.151 85.991,358.945 86.380,358.251 86.479 C 357.525 86.582,357.382 86.909,357.279 88.700 C 357.180 90.429,357.028 90.800,356.422 90.800 C 355.460 90.800,355.200 91.564,355.200 94.389 C 355.200 96.535,355.123 96.733,354.200 96.964 C 353.301 97.190,353.200 97.416,353.200 99.208 C 353.200 101.066,353.133 101.200,352.200 101.200 C 351.222 101.200,351.200 101.267,351.200 104.200 C 351.200 107.133,351.178 107.200,350.200 107.200 C 349.130 107.200,349.023 107.500,349.176 110.070 C 349.255 111.412,349.164 111.552,348.131 111.670 C 347.019 111.798,346.998 111.849,346.883 114.674 C 346.776 117.292,346.687 117.560,345.883 117.674 C 345.119 117.783,344.984 118.083,344.879 119.900 C 344.768 121.828,344.678 122.000,343.779 122.000 C 342.861 122.000,342.800 122.135,342.800 124.157 C 342.800 126.122,342.712 126.335,341.802 126.564 C 341.254 126.701,340.825 126.946,340.850 127.107 C 341.256 129.750,340.731 132.400,339.800 132.400 C 339.250 132.400,338.778 132.580,338.750 132.800 C 338.723 133.020,338.655 133.380,338.600 133.600 C 338.545 133.820,338.478 134.540,338.450 135.200 C 338.402 136.363,338.339 136.400,336.447 136.400 C 334.759 136.400,334.460 136.522,334.252 137.300 C 333.774 139.084,334.034 141.434,334.905 143.200 C 335.789 144.993,335.794 145.116,336.022 172.800 C 336.147 188.090,336.284 200.645,336.325 200.700 C 336.551 201.002,337.600 200.735,337.600 200.376 C 337.600 200.143,337.784 200.067,338.010 200.206 C 338.235 200.345,338.394 200.311,338.363 200.130 C 337.906 197.500,338.465 194.846,339.500 194.727 C 340.529 194.608,340.608 194.461,340.722 192.466 C 340.814 190.854,340.979 190.383,341.393 190.542 C 341.913 190.741,342.692 190.150,342.766 189.500 C 342.785 189.335,342.800 188.120,342.800 186.800 C 342.800 184.712,342.898 184.400,343.557 184.400 C 344.443 184.400,344.800 183.653,344.800 181.795 C 344.800 180.711,344.971 180.431,345.700 180.328 C 346.482 180.217,346.616 179.929,346.720 178.125 C 346.824 176.337,346.961 176.033,347.720 175.925 C 348.528 175.810,348.610 175.547,348.717 172.700 L 348.834 169.600 350.017 169.600 C 350.668 169.600,351.179 169.465,351.153 169.300 C 350.844 167.347,351.272 165.645,352.100 165.528 C 352.884 165.416,353.016 165.129,353.121 163.300 C 353.220 161.571,353.372 161.200,353.978 161.200 C 354.943 161.200,355.200 160.436,355.200 157.567 C 355.200 155.322,355.251 155.200,356.179 155.200 C 357.078 155.200,357.168 155.028,357.279 153.100 C 357.382 151.307,357.517 151.000,358.200 151.000 C 358.883 151.000,359.018 150.693,359.121 148.903 C 359.236 146.906,360.195 145.529,360.947 146.281 C 361.086 146.420,361.231 146.098,361.268 145.567 C 361.306 145.035,361.377 144.330,361.426 144.000 C 361.475 143.670,361.534 142.828,361.557 142.128 C 361.591 141.129,361.793 140.828,362.500 140.728 C 363.284 140.616,363.416 140.329,363.521 138.500 C 363.632 136.572,363.722 136.400,364.621 136.400 C 365.572 136.400,365.600 136.315,365.600 133.428 C 365.600 130.650,365.659 130.447,366.500 130.328 C 367.284 130.216,367.416 129.929,367.521 128.100 C 367.632 126.172,367.722 126.000,368.621 126.000 C 369.536 126.000,369.600 125.862,369.600 123.885 C 369.600 122.019,369.700 121.763,370.445 121.707 C 371.715 121.611,371.848 121.226,371.954 117.328 C 371.993 115.915,372.140 115.636,372.900 115.528 C 373.665 115.419,373.818 115.120,373.920 113.538 C 374.023 111.943,374.181 111.641,375.020 111.431 C 375.896 111.211,376.000 110.973,376.000 109.192 C 376.000 107.391,376.143 107.132,377.084 107.230 C 377.599 107.283,377.943 105.837,377.972 103.500 C 377.993 101.758,378.146 101.188,378.600 101.150 C 378.930 101.123,379.425 101.078,379.700 101.050 C 380.012 101.019,380.245 100.219,380.320 98.925 C 380.423 97.141,380.563 96.833,381.314 96.725 C 382.056 96.619,382.210 96.298,382.333 94.600 C 382.474 92.639,382.979 91.816,383.749 92.292 C 383.972 92.430,384.028 92.249,383.881 91.866 C 383.740 91.500,383.799 91.200,384.013 91.200 C 384.226 91.200,384.400 90.120,384.400 88.800 C 384.400 86.507,384.444 86.400,385.400 86.400 C 386.330 86.400,386.400 86.264,386.400 84.443 C 386.400 82.690,386.504 82.461,387.400 82.236 C 388.354 81.996,388.400 81.849,388.400 79.019 C 388.400 76.081,388.410 76.052,389.500 75.927 C 390.499 75.812,390.611 75.633,390.718 73.987 C 390.811 72.566,391.027 72.090,391.718 71.787 C 392.419 71.480,392.625 71.009,392.722 69.500 C 392.824 67.915,392.975 67.600,393.634 67.600 C 394.640 67.600,394.958 66.766,394.626 64.997 L 394.364 63.600 381.249 63.600 C 374.035 63.600,368.013 63.720,367.867 63.867 M138.713 66.090 C 138.134 67.724,138.606 69.401,139.680 69.525 C 140.680 69.640,140.769 69.803,140.880 71.725 C 140.984 73.517,141.121 73.817,141.884 73.926 C 142.696 74.041,142.777 74.301,142.884 77.126 C 142.990 79.945,143.073 80.210,143.879 80.325 C 144.621 80.431,144.777 80.744,144.879 82.325 C 144.982 83.921,145.134 84.219,145.900 84.328 C 146.733 84.446,146.800 84.659,146.800 87.179 C 146.800 89.937,147.280 90.962,148.458 90.714 C 148.826 90.637,149.016 91.050,149.049 92.000 C 149.145 94.753,149.164 94.800,150.200 94.800 C 151.133 94.800,151.702 97.971,151.231 100.549 C 151.196 100.741,151.431 100.797,151.754 100.673 C 152.621 100.340,153.129 101.189,153.272 103.208 C 153.380 104.715,153.543 105.020,154.300 105.128 C 155.094 105.241,155.200 105.487,155.200 107.228 C 155.200 109.056,155.272 109.200,156.183 109.200 C 157.133 109.200,157.170 109.306,157.283 112.300 C 157.389 115.114,157.479 115.411,158.251 115.521 C 158.945 115.620,159.151 116.009,159.365 117.621 C 159.598 119.376,159.737 119.600,160.597 119.600 C 161.529 119.600,161.571 119.718,161.683 122.700 C 161.790 125.547,161.872 125.810,162.680 125.925 C 163.439 126.033,163.576 126.337,163.680 128.125 C 163.784 129.916,163.921 130.217,164.682 130.326 C 165.477 130.439,165.576 130.715,165.682 133.126 C 165.785 135.457,165.916 135.851,166.700 136.195 C 167.421 136.511,167.600 136.913,167.600 138.215 C 167.600 139.969,168.140 140.800,169.280 140.800 C 169.892 140.800,170.000 141.154,170.000 143.167 C 170.000 146.050,170.257 146.800,171.243 146.800 C 171.884 146.800,172.000 147.104,172.000 148.792 C 172.000 150.584,172.101 150.810,173.000 151.036 C 173.896 151.261,174.000 151.490,174.000 153.243 C 174.000 155.064,174.070 155.200,175.000 155.200 C 175.978 155.200,176.000 155.267,176.000 158.192 C 176.000 161.034,176.049 161.197,176.980 161.431 C 177.819 161.641,177.977 161.943,178.080 163.538 C 178.189 165.229,178.299 165.411,179.284 165.525 C 180.345 165.647,180.370 165.713,180.484 168.725 C 180.591 171.568,180.668 171.810,181.500 171.928 C 182.294 172.041,182.400 172.287,182.400 174.028 C 182.400 175.865,182.469 176.000,183.400 176.000 L 184.400 176.000 184.400 180.200 C 184.400 184.054,184.338 184.400,183.643 184.400 C 182.643 184.400,182.400 185.149,182.400 188.233 C 182.400 190.704,182.363 190.800,181.400 190.800 C 180.468 190.800,180.400 190.935,180.400 192.773 C 180.400 194.629,180.334 194.754,179.300 194.873 C 178.259 194.993,178.198 195.114,178.161 197.139 C 178.124 199.165,177.525 200.248,176.719 199.750 C 176.544 199.642,176.400 199.923,176.400 200.376 C 176.400 200.829,176.220 201.200,176.000 201.200 C 175.095 201.200,175.582 203.613,176.563 203.986 C 177.163 204.214,177.623 204.795,177.784 205.526 C 177.925 206.171,178.482 207.114,179.021 207.619 C 179.559 208.125,180.000 208.797,180.000 209.112 C 180.000 209.427,180.450 210.219,181.000 210.873 C 181.550 211.527,182.000 212.427,182.000 212.873 C 182.000 213.320,182.429 214.023,182.954 214.435 C 183.479 214.848,184.027 215.817,184.171 216.588 C 184.316 217.359,184.779 218.175,185.200 218.400 C 185.621 218.625,186.084 219.440,186.228 220.210 C 186.373 220.981,186.714 221.744,186.987 221.906 C 187.728 222.345,188.400 223.812,188.400 224.987 C 188.400 226.931,190.560 226.158,190.693 224.167 C 190.831 222.085,191.182 220.649,191.480 220.947 C 191.943 221.410,192.800 219.095,192.800 217.382 C 192.800 215.896,192.925 215.638,193.700 215.528 C 194.468 215.419,194.618 215.121,194.722 213.502 C 194.827 211.870,194.981 211.570,195.822 211.359 C 196.749 211.126,196.800 210.959,196.800 208.157 C 196.800 205.270,196.824 205.200,197.800 205.200 C 198.600 205.200,198.800 205.000,198.800 204.200 C 198.800 203.256,198.921 203.200,200.978 203.200 L 203.156 203.200 203.278 205.100 C 203.382 206.721,203.532 207.019,204.300 207.128 C 205.094 207.241,205.200 207.487,205.200 209.220 C 205.200 210.971,205.306 211.211,206.180 211.431 C 207.019 211.641,207.177 211.943,207.280 213.538 C 207.381 215.099,207.541 215.420,208.268 215.524 C 209.039 215.633,209.167 215.977,209.412 218.591 C 209.662 221.255,209.779 221.558,210.644 221.775 C 211.475 221.984,211.600 222.251,211.600 223.820 C 211.600 225.809,211.917 226.087,214.268 226.158 C 215.539 226.196,215.705 226.066,216.207 224.629 C 216.508 223.764,217.021 222.908,217.346 222.726 C 217.671 222.544,218.052 221.875,218.191 221.239 C 218.331 220.603,218.785 219.776,219.200 219.400 C 219.615 219.024,220.069 218.194,220.210 217.555 C 220.350 216.916,220.779 216.225,221.162 216.020 C 221.546 215.815,222.077 214.920,222.344 214.030 C 222.610 213.141,223.182 212.224,223.614 211.992 C 224.075 211.746,224.400 211.156,224.400 210.568 C 224.400 210.015,224.861 209.102,225.425 208.539 C 226.847 207.117,226.440 201.491,224.900 201.272 C 224.076 201.155,223.569 198.266,223.956 195.891 C 223.983 195.721,223.565 195.415,223.026 195.210 C 222.202 194.897,222.026 194.530,221.923 192.919 C 221.811 191.168,221.705 190.989,220.720 190.875 C 219.720 190.760,219.631 190.597,219.520 188.675 C 219.445 187.381,219.212 186.581,218.900 186.550 C 218.625 186.523,218.220 186.478,218.000 186.450 C 217.756 186.420,217.600 184.367,217.600 181.200 L 217.600 176.000 218.600 176.000 C 219.544 176.000,219.600 175.878,219.600 173.828 C 219.600 171.882,219.693 171.642,220.497 171.528 C 221.479 171.388,221.870 170.261,221.953 167.328 C 221.993 165.916,222.140 165.636,222.900 165.528 C 223.668 165.419,223.818 165.121,223.922 163.500 C 223.989 162.455,224.201 161.600,224.393 161.600 C 225.426 161.600,226.000 160.232,226.000 157.771 C 226.000 155.310,226.042 155.200,226.979 155.200 C 227.878 155.200,227.968 155.028,228.079 153.100 C 228.191 151.159,228.276 151.000,229.200 151.000 C 230.280 151.000,230.257 151.079,230.350 147.028 C 230.394 145.098,230.500 144.841,231.300 144.728 C 232.063 144.619,232.230 144.296,232.400 142.600 C 232.567 140.934,232.734 140.600,233.399 140.600 C 234.245 140.600,234.272 140.526,234.350 137.963 C 234.389 136.685,234.576 136.279,235.200 136.116 C 235.640 136.001,236.027 135.703,236.061 135.453 C 236.094 135.204,236.164 134.820,236.215 134.600 C 236.266 134.380,236.328 133.358,236.354 132.328 C 236.394 130.708,236.521 130.438,237.300 130.328 C 238.079 130.217,238.227 129.904,238.400 128.000 C 238.564 126.197,238.744 125.775,239.400 125.662 C 240.644 125.447,240.634 125.482,240.758 121.100 C 240.795 119.778,240.919 119.600,241.800 119.600 C 242.350 119.600,242.779 119.465,242.753 119.300 C 242.444 117.347,242.872 115.645,243.700 115.528 C 244.533 115.410,244.609 115.169,244.717 112.300 C 244.830 109.306,244.867 109.200,245.817 109.200 C 246.728 109.200,246.800 109.056,246.800 107.228 C 246.800 105.487,246.906 105.241,247.700 105.128 C 248.532 105.010,248.609 104.768,248.716 101.925 C 248.830 98.913,248.855 98.847,249.916 98.725 C 250.902 98.611,251.011 98.430,251.121 96.725 C 251.223 95.144,251.379 94.831,252.121 94.725 C 253.078 94.589,253.086 94.558,253.154 90.900 C 253.198 88.512,253.245 88.400,254.200 88.400 C 255.133 88.400,255.200 88.267,255.200 86.400 C 255.200 84.533,255.267 84.400,256.200 84.400 C 257.147 84.400,257.200 84.282,257.200 82.176 C 257.200 80.906,257.360 80.051,257.572 80.183 C 257.777 80.309,258.060 80.227,258.200 80.000 C 258.340 79.773,258.627 79.693,258.838 79.823 C 259.048 79.953,259.194 79.911,259.163 79.730 C 258.719 77.178,259.271 74.000,260.157 74.000 C 261.267 74.000,261.600 73.347,261.600 71.167 C 261.600 69.872,261.737 69.600,262.392 69.600 C 263.379 69.600,263.875 67.923,263.278 66.610 L 262.854 65.680 251.327 65.636 C 237.666 65.584,238.521 65.262,238.427 70.500 C 238.403 71.826,238.284 72.000,237.400 72.000 C 236.471 72.000,236.400 72.138,236.400 73.936 C 236.400 75.612,236.266 75.933,235.400 76.327 C 234.472 76.750,234.400 76.984,234.400 79.591 C 234.400 82.321,234.372 82.400,233.400 82.400 C 232.466 82.400,232.400 82.533,232.400 84.410 C 232.400 86.186,232.284 86.464,231.400 86.800 C 230.466 87.155,230.400 87.363,230.400 89.964 C 230.400 92.696,230.380 92.749,229.311 92.873 C 228.328 92.988,228.209 93.176,228.093 94.800 C 227.921 97.195,227.742 97.629,227.037 97.359 C 226.645 97.209,226.447 97.380,226.451 97.866 C 226.455 98.270,226.368 98.960,226.259 99.400 C 226.150 99.840,226.047 100.875,226.031 101.700 C 226.004 103.018,225.881 103.200,225.017 103.200 C 224.067 103.200,224.030 103.306,223.917 106.300 C 223.809 109.169,223.733 109.410,222.900 109.528 C 222.106 109.641,222.000 109.887,222.000 111.628 C 222.000 113.465,221.931 113.600,221.000 113.600 C 220.017 113.600,220.000 113.655,220.000 116.773 C 220.000 119.938,219.997 119.947,218.900 120.073 C 217.893 120.189,217.790 120.360,217.678 122.100 C 217.568 123.815,217.461 124.000,216.578 124.000 C 215.622 124.000,215.600 124.072,215.600 127.200 C 215.600 130.347,215.583 130.400,214.600 130.400 C 213.669 130.400,213.600 130.535,213.600 132.372 C 213.600 134.113,213.494 134.359,212.700 134.472 C 211.867 134.590,211.791 134.831,211.683 137.700 C 211.571 140.682,211.529 140.800,210.597 140.800 C 209.739 140.800,209.598 141.024,209.368 142.757 C 209.164 144.293,208.904 144.807,208.154 145.148 C 207.280 145.546,207.200 145.820,207.200 148.391 C 207.200 151.121,207.172 151.200,206.200 151.200 C 205.267 151.200,205.200 151.333,205.200 153.200 C 205.200 155.067,205.133 155.200,204.200 155.200 C 203.267 155.200,203.200 155.333,203.200 157.200 L 203.200 159.200 201.000 159.200 L 198.800 159.200 198.800 157.200 C 198.800 155.333,198.733 155.200,197.800 155.200 C 196.823 155.200,196.800 155.131,196.800 152.228 C 196.800 149.450,196.741 149.247,195.900 149.128 C 195.137 149.019,194.970 148.696,194.800 147.000 C 194.630 145.304,194.463 144.981,193.700 144.872 C 192.900 144.759,192.794 144.502,192.750 142.572 C 192.722 141.377,192.662 140.265,192.615 140.100 C 192.319 139.048,191.839 138.400,191.357 138.400 C 191.005 138.400,190.783 137.922,190.754 137.100 C 190.670 134.723,190.612 134.601,189.516 134.475 C 188.455 134.353,188.430 134.287,188.316 131.275 C 188.237 129.178,188.041 128.184,187.700 128.150 C 187.425 128.123,187.030 128.078,186.822 128.050 C 186.614 128.023,186.389 127.145,186.322 126.100 C 186.218 124.479,186.068 124.181,185.300 124.072 C 184.470 123.954,184.400 123.737,184.394 121.272 C 184.388 118.780,184.060 117.485,183.455 117.566 C 182.595 117.681,182.432 117.412,182.322 115.700 C 182.218 114.079,182.068 113.781,181.300 113.672 C 180.474 113.555,180.400 113.334,180.400 111.001 C 180.400 108.405,179.820 107.200,178.571 107.200 C 178.152 107.200,178.000 106.667,178.000 105.200 C 178.000 103.342,177.930 103.200,177.017 103.200 C 176.067 103.200,176.030 103.094,175.917 100.100 C 175.812 97.306,175.721 97.000,175.000 97.000 C 174.330 97.000,174.180 96.693,174.078 95.102 C 173.973 93.470,173.819 93.170,172.978 92.959 C 172.058 92.728,172.000 92.549,172.000 89.922 C 172.000 87.188,171.975 87.121,170.800 86.678 C 169.697 86.261,169.600 86.070,169.600 84.312 C 169.600 82.548,169.524 82.400,168.618 82.400 C 167.675 82.400,167.630 82.281,167.518 79.500 C 167.414 76.934,167.296 76.554,166.500 76.205 C 165.686 75.848,165.266 74.115,165.553 72.300 C 165.579 72.135,165.150 72.000,164.600 72.000 C 163.730 72.000,163.002 68.485,163.668 67.500 C 163.705 67.445,163.524 67.005,163.265 66.522 C 162.692 65.450,139.086 65.035,138.713 66.090 M306.751 118.370 C 306.515 119.046,306.159 119.600,305.961 119.600 C 305.367 119.600,305.553 121.063,306.217 121.614 C 307.060 122.313,307.481 121.765,307.805 119.547 C 308.134 117.305,307.405 116.492,306.751 118.370 M303.700 217.865 C 303.364 218.001,303.200 219.029,303.200 221.006 C 303.200 223.749,303.140 223.953,302.300 224.072 C 301.532 224.181,301.382 224.479,301.278 226.100 C 301.205 227.234,300.964 228.002,300.678 228.006 C 299.339 228.023,299.023 228.750,299.137 231.549 L 299.251 234.342 298.125 234.471 C 297.091 234.590,296.984 234.761,296.800 236.600 C 296.681 237.785,296.396 238.620,296.100 238.650 C 295.825 238.678,295.420 238.722,295.200 238.750 C 294.974 238.778,294.800 240.091,294.800 241.772 C 294.800 244.550,294.741 244.753,293.900 244.872 C 293.137 244.981,292.970 245.304,292.800 247.000 C 292.681 248.194,292.398 249.016,292.100 249.040 C 291.825 249.062,291.420 249.107,291.200 249.140 C 290.980 249.173,290.800 250.100,290.800 251.200 C 290.800 252.944,290.696 253.200,289.987 253.200 C 288.887 253.200,288.495 254.430,288.428 258.100 C 288.403 259.426,288.284 259.600,287.400 259.600 C 286.467 259.600,286.400 259.733,286.400 261.600 C 286.400 263.566,286.143 263.875,284.700 263.647 C 284.535 263.621,284.400 265.040,284.400 266.800 C 284.400 269.947,284.383 270.000,283.400 270.000 C 282.467 270.000,282.400 270.133,282.400 272.000 C 282.400 273.867,282.333 274.000,281.400 274.000 C 280.417 274.000,280.400 274.055,280.400 277.173 C 280.400 280.338,280.397 280.347,279.300 280.473 C 278.695 280.543,278.178 280.825,278.150 281.100 C 278.123 281.375,278.078 282.210,278.050 282.957 C 278.010 284.050,277.806 284.362,277.000 284.564 C 276.104 284.789,276.000 285.019,276.000 286.764 C 276.000 288.481,275.887 288.742,275.052 288.951 C 274.500 289.090,274.105 289.485,274.106 289.895 C 274.126 294.347,274.026 294.800,273.021 294.800 C 272.122 294.800,272.032 294.972,271.921 296.895 L 271.800 298.990 268.700 299.131 L 265.600 299.271 265.600 297.036 C 265.600 294.931,265.543 294.800,264.622 294.800 C 263.739 294.800,263.632 294.615,263.522 292.900 C 263.418 291.279,263.268 290.981,262.500 290.872 C 261.797 290.772,261.588 290.466,261.543 289.472 C 261.349 285.131,261.128 284.400,260.013 284.400 C 259.304 284.400,259.200 284.144,259.200 282.400 C 259.200 280.533,259.133 280.400,258.200 280.400 C 257.244 280.400,257.200 280.293,257.200 278.000 C 257.200 276.680,257.041 275.600,256.847 275.600 C 256.652 275.600,256.394 275.222,256.274 274.760 C 256.153 274.297,255.862 274.038,255.627 274.183 C 255.344 274.358,255.200 273.698,255.200 272.224 C 255.200 270.131,255.142 270.000,254.221 270.000 C 253.322 270.000,253.232 269.828,253.121 267.900 C 253.016 266.071,252.884 265.784,252.100 265.672 C 251.437 265.578,251.188 265.262,251.155 264.472 C 251.100 263.174,250.938 260.787,250.858 260.100 C 250.826 259.825,250.350 259.600,249.800 259.600 C 248.855 259.600,248.800 259.480,248.800 257.400 C 248.800 255.320,248.745 255.200,247.800 255.200 C 246.867 255.200,246.800 255.067,246.800 253.200 C 246.800 251.342,246.730 251.200,245.817 251.200 C 244.867 251.200,244.830 251.094,244.717 248.100 C 244.610 245.254,244.528 244.990,243.721 244.875 C 242.979 244.769,242.823 244.456,242.721 242.875 C 242.618 241.279,242.466 240.981,241.700 240.872 C 241.000 240.773,240.800 240.483,240.800 239.572 C 240.800 237.663,238.592 237.849,238.229 239.789 C 238.085 240.552,237.646 241.407,237.253 241.689 C 236.859 241.970,236.333 242.793,236.083 243.519 C 235.833 244.244,235.262 245.303,234.814 245.873 C 234.366 246.442,234.000 247.121,234.000 247.382 C 234.000 247.642,233.550 248.247,233.000 248.725 C 232.450 249.203,232.000 249.964,232.000 250.416 C 232.000 250.867,231.550 251.686,231.000 252.236 C 230.450 252.786,230.000 253.510,230.000 253.844 C 230.000 254.713,229.194 256.114,228.350 256.713 C 227.721 257.160,227.654 257.651,227.839 260.513 C 228.146 265.267,228.248 265.600,229.408 265.600 C 230.332 265.600,230.400 265.737,230.400 267.600 C 230.400 269.455,230.471 269.600,231.379 269.600 C 232.278 269.600,232.368 269.772,232.479 271.700 C 232.584 273.517,232.719 273.817,233.484 273.926 C 234.296 274.041,234.377 274.301,234.484 277.126 C 234.563 279.222,234.759 280.216,235.100 280.250 C 235.375 280.278,235.770 280.322,235.978 280.350 C 236.186 280.377,236.411 281.255,236.478 282.300 C 236.582 283.921,236.732 284.219,237.500 284.328 C 238.185 284.425,238.412 284.736,238.450 285.628 C 238.478 286.273,238.545 286.980,238.600 287.200 C 238.655 287.420,238.722 287.780,238.750 288.000 C 238.778 288.220,239.250 288.400,239.800 288.400 C 240.783 288.400,240.800 288.453,240.800 291.600 C 240.800 294.747,240.817 294.800,241.800 294.800 C 242.733 294.800,242.800 294.933,242.800 296.800 C 242.800 298.667,242.867 298.800,243.800 298.800 C 244.697 298.800,244.800 298.962,244.800 300.367 C 244.800 302.451,245.129 303.200,246.043 303.200 C 246.718 303.200,246.800 303.523,246.800 306.200 L 246.800 309.200 248.034 309.200 C 249.210 309.200,249.265 309.271,249.178 310.700 C 249.022 313.301,249.127 313.600,250.200 313.600 C 251.133 313.600,251.200 313.733,251.200 315.600 C 251.200 317.467,251.267 317.600,252.200 317.600 C 253.183 317.600,253.200 317.653,253.200 320.800 C 253.200 323.947,253.217 324.000,254.200 324.000 C 255.133 324.000,255.200 324.133,255.200 326.000 C 255.200 327.855,255.271 328.000,256.179 328.000 C 257.077 328.000,257.168 328.173,257.279 330.084 C 257.386 331.933,257.513 332.194,258.400 332.400 C 259.035 332.548,259.447 332.957,259.529 333.523 L 259.657 334.413 269.929 334.307 L 280.200 334.200 280.328 333.300 C 280.398 332.805,280.610 332.400,280.799 332.400 C 281.627 332.400,282.400 331.034,282.400 329.571 C 282.400 328.171,282.506 328.000,283.379 328.000 C 284.278 328.000,284.368 327.828,284.479 325.900 C 284.555 324.586,284.787 323.781,285.100 323.750 C 285.375 323.723,285.780 323.678,286.000 323.650 C 286.227 323.622,286.400 322.300,286.400 320.600 C 286.400 317.667,286.422 317.600,287.400 317.600 C 288.333 317.600,288.400 317.467,288.400 315.600 C 288.400 314.111,288.553 313.587,289.000 313.550 C 289.330 313.523,289.825 313.478,290.100 313.450 C 290.417 313.418,290.643 312.595,290.718 311.200 C 290.799 309.707,291.056 308.830,291.518 308.472 C 291.893 308.181,292.155 307.776,292.100 307.572 C 292.045 307.367,292.180 307.200,292.400 307.200 C 292.620 307.200,292.800 306.313,292.800 305.228 C 292.800 303.487,292.906 303.241,293.700 303.128 C 294.482 303.017,294.616 302.729,294.720 300.925 C 294.824 299.137,294.961 298.833,295.720 298.725 C 296.521 298.611,296.611 298.341,296.718 295.700 C 296.830 292.919,296.875 292.800,297.818 292.800 C 298.740 292.800,298.800 292.668,298.800 290.627 C 298.800 288.553,298.850 288.447,299.900 288.327 C 300.917 288.210,301.018 288.035,301.235 286.000 C 301.364 284.790,301.499 283.963,301.535 284.162 C 301.645 284.777,303.229 283.092,303.167 282.427 C 303.134 282.082,303.129 280.945,303.154 279.900 L 303.200 278.000 305.410 278.000 C 308.567 278.000,309.348 273.441,306.971 268.885 C 306.501 267.985,306.405 263.683,306.402 243.589 C 306.400 216.535,306.424 216.766,303.700 217.865 M98.774 247.367 C 98.751 268.281,98.562 274.719,97.753 282.100 L 97.501 284.400 99.350 284.400 L 101.200 284.400 101.200 286.400 C 101.200 288.258,101.270 288.400,102.183 288.400 C 103.133 288.400,103.170 288.506,103.283 291.500 C 103.391 294.369,103.467 294.610,104.300 294.728 C 105.094 294.841,105.200 295.087,105.200 296.828 C 105.200 298.665,105.269 298.800,106.200 298.800 C 107.133 298.800,107.200 298.934,107.200 300.792 C 107.200 302.584,107.301 302.810,108.200 303.036 C 109.071 303.254,109.200 303.507,109.200 304.993 C 109.200 308.048,109.591 309.200,110.629 309.200 C 111.468 309.200,111.570 309.404,111.679 311.300 C 111.784 313.129,111.916 313.416,112.700 313.528 C 113.494 313.641,113.600 313.887,113.600 315.628 C 113.600 317.456,113.672 317.600,114.583 317.600 C 115.533 317.600,115.570 317.706,115.683 320.700 C 115.790 323.546,115.872 323.810,116.679 323.925 C 117.421 324.031,117.577 324.344,117.679 325.925 C 117.790 327.638,117.895 327.811,118.900 327.927 C 119.950 328.047,120.000 328.153,120.000 330.227 C 120.000 332.262,120.062 332.400,120.972 332.400 C 121.676 332.400,121.980 332.649,122.072 333.300 L 122.200 334.200 132.291 334.307 L 142.381 334.414 142.628 333.430 C 142.779 332.829,143.211 332.398,143.738 332.323 C 144.477 332.218,144.617 331.900,144.721 330.100 C 144.832 328.172,144.922 328.000,145.821 328.000 C 146.729 328.000,146.800 327.855,146.800 326.000 C 146.800 324.133,146.867 324.000,147.800 324.000 C 148.744 324.000,148.800 323.878,148.800 321.827 C 148.800 319.756,148.852 319.647,149.894 319.527 C 150.664 319.438,151.000 319.162,151.026 318.600 C 151.046 318.160,151.094 316.868,151.132 315.728 C 151.192 313.908,151.310 313.640,152.100 313.528 C 152.884 313.416,153.016 313.129,153.121 311.300 C 153.231 309.385,153.326 309.200,154.200 309.200 C 155.074 309.200,155.169 309.015,155.279 307.100 C 155.368 305.554,155.558 305.000,156.000 305.000 C 156.865 305.000,157.140 304.131,157.172 301.300 C 157.199 298.907,157.243 298.800,158.200 298.800 C 159.133 298.800,159.200 298.667,159.200 296.800 C 159.200 294.933,159.267 294.800,160.200 294.800 C 160.750 294.800,161.213 294.755,161.228 294.700 C 161.244 294.645,161.348 293.700,161.460 292.600 C 161.573 291.500,161.831 290.540,162.035 290.466 C 162.238 290.392,162.305 290.169,162.182 289.970 C 162.059 289.772,162.213 289.707,162.525 289.827 C 163.165 290.072,163.600 288.502,163.600 285.950 C 163.600 284.460,163.942 284.138,165.300 284.353 C 165.465 284.379,165.600 283.500,165.600 282.400 C 165.600 281.300,165.780 280.377,166.000 280.350 C 166.220 280.322,166.625 280.278,166.900 280.250 C 167.241 280.216,167.437 279.222,167.516 277.126 C 167.623 274.301,167.704 274.041,168.516 273.926 C 169.279 273.817,169.416 273.517,169.520 271.725 C 169.631 269.803,169.720 269.640,170.720 269.525 C 171.700 269.412,171.811 269.228,171.920 267.538 C 172.023 265.943,172.181 265.641,173.020 265.431 C 173.951 265.197,174.000 265.034,174.000 262.192 C 174.000 259.298,174.032 259.200,174.962 259.200 C 176.532 259.200,176.864 255.701,175.431 254.267 C 174.864 253.700,174.400 252.867,174.400 252.416 C 174.400 251.964,173.950 251.203,173.400 250.725 C 172.850 250.247,172.400 249.542,172.400 249.159 C 172.400 248.775,171.975 247.953,171.455 247.331 C 170.935 246.709,170.377 245.777,170.215 245.261 C 170.053 244.744,169.583 243.983,169.171 243.571 C 168.758 243.158,168.302 242.351,168.158 241.777 C 168.014 241.202,167.470 240.306,166.948 239.785 C 166.427 239.263,166.000 238.503,166.000 238.096 C 166.000 237.028,163.385 234.306,162.516 234.471 C 161.963 234.576,161.755 235.105,161.600 236.803 C 161.490 238.012,161.265 238.955,161.100 238.900 C 159.923 238.508,159.683 238.917,159.415 241.776 C 159.167 244.423,159.040 244.766,158.268 244.876 C 157.538 244.980,157.381 245.301,157.278 246.898 C 157.173 248.530,157.019 248.830,156.178 249.041 C 155.310 249.259,155.200 249.503,155.200 251.216 C 155.200 252.794,155.054 253.192,154.401 253.400 C 153.511 253.682,153.258 254.462,153.105 257.400 C 153.014 259.132,152.879 259.417,152.100 259.528 C 151.306 259.641,151.200 259.887,151.200 261.628 C 151.200 263.465,151.131 263.600,150.200 263.600 C 149.095 263.600,149.116 263.535,149.048 267.200 C 149.001 269.725,148.968 269.804,147.900 269.927 C 146.866 270.046,146.800 270.171,146.800 272.027 C 146.800 273.865,146.732 274.000,145.800 274.000 C 145.250 274.000,144.821 274.135,144.847 274.300 C 145.135 276.124,144.727 278.000,144.043 278.000 C 143.045 278.000,142.800 278.749,142.800 281.805 C 142.800 284.134,142.725 284.355,141.900 284.472 C 141.132 284.581,140.982 284.879,140.878 286.500 C 140.782 287.994,140.607 288.400,140.058 288.400 C 138.931 288.400,138.400 289.245,138.400 291.037 C 138.400 292.490,138.267 292.747,137.402 292.964 C 136.854 293.101,136.425 293.346,136.450 293.507 C 136.843 296.068,136.324 298.804,135.400 299.036 C 134.682 299.216,134.400 299.557,134.400 300.243 C 134.400 301.123,134.241 301.200,132.421 301.200 L 130.442 301.200 130.321 299.100 C 130.208 297.141,130.126 296.991,129.100 296.873 C 128.010 296.748,128.000 296.720,128.000 293.773 C 128.000 290.885,127.972 290.800,127.021 290.800 C 126.122 290.800,126.032 290.628,125.921 288.700 C 125.816 286.871,125.684 286.584,124.900 286.472 C 124.059 286.353,124.000 286.150,124.000 283.372 C 124.000 280.485,123.972 280.400,123.021 280.400 C 122.122 280.400,122.032 280.228,121.921 278.300 C 121.808 276.341,121.726 276.191,120.700 276.073 C 119.610 275.948,119.600 275.920,119.600 272.973 C 119.600 271.338,119.465 270.021,119.300 270.047 C 117.828 270.280,117.600 269.979,117.600 267.800 C 117.600 265.720,117.545 265.600,116.600 265.600 C 115.705 265.600,115.600 265.437,115.600 264.050 C 115.600 261.991,115.177 259.967,114.797 260.202 C 114.200 260.571,113.649 259.353,113.526 257.390 C 113.418 255.692,113.271 255.382,112.521 255.275 C 111.779 255.169,111.623 254.856,111.521 253.275 C 111.410 251.562,111.305 251.389,110.300 251.273 C 109.203 251.147,109.200 251.138,109.200 247.973 C 109.200 244.855,109.183 244.800,108.200 244.800 C 107.267 244.800,107.200 244.667,107.200 242.800 C 107.200 240.933,107.133 240.800,106.200 240.800 C 105.233 240.800,105.200 240.712,105.194 238.100 C 105.187 235.221,104.869 234.284,103.963 234.479 C 103.546 234.569,103.369 234.055,103.279 232.500 C 103.168 230.572,103.078 230.400,102.179 230.400 C 101.141 230.400,101.182 230.545,101.047 226.333 C 100.994 224.673,100.723 224.275,99.592 224.192 C 98.811 224.135,98.800 224.468,98.774 247.367 " stroke="none" fill="#ababab" fill-rule="evenodd"></path><path id="path4" d="M19.693 94.000 C 19.693 94.770,19.775 95.085,19.876 94.700 C 19.976 94.315,19.976 93.685,19.876 93.300 C 19.775 92.915,19.693 93.230,19.693 94.000 M219.594 117.482 C 219.487 118.846,219.545 119.817,219.723 119.639 C 219.900 119.460,219.988 118.344,219.917 117.157 L 219.789 115.000 219.594 117.482 M169.701 142.200 C 169.705 143.080,169.787 143.393,169.883 142.895 C 169.979 142.398,169.975 141.678,169.875 141.295 C 169.775 140.913,169.696 141.320,169.701 142.200 M267.705 299.087 C 268.314 299.179,269.214 299.177,269.705 299.082 C 270.197 298.987,269.700 298.911,268.600 298.914 C 267.500 298.917,267.097 298.995,267.705 299.087 M119.701 329.400 C 119.705 330.280,119.787 330.593,119.883 330.095 C 119.979 329.598,119.975 328.878,119.875 328.495 C 119.775 328.113,119.696 328.520,119.701 329.400 " stroke="none" fill="#ffffff" fill-rule="evenodd"></path></g></svg>